<svg width="1359" height="727" viewBox="0 0 1359 727" fill="none" xmlns="http://www.w3.org/2000/svg">
<g clip-path="url(#clip0_99_3781)">
<path d="M327.063 301.959C351.711 301.959 375.567 293.733 390.818 278.102C401.766 266.759 406.023 251.889 406.023 236.638C406.023 221.387 401.72 206.121 395.076 195.964L393.114 197.135C397.417 203.384 398.983 211.61 398.983 220.596C398.983 238.204 391.548 258.533 380.996 269.496C364.954 285.142 340.702 293.733 316.845 293.733C282.04 293.733 248.422 275.35 244.879 234.296C244.557 230.651 244.425 226.992 244.484 223.333C244.484 157.951 304.331 114.601 366.125 109.127C372.785 108.732 379.43 108.352 385.679 108.352C479.951 108.352 572.702 168.975 683.335 168.975C689.204 168.975 695.499 168.975 701.323 168.58C753.34 165.052 819.056 134.55 840.952 78.6259C845.095 68.0289 847.22 56.7504 847.216 45.3722C847.216 28.5553 842.518 11.7384 831.57 0L830.354 1.91584C840.131 12.8636 844.434 27.7646 844.434 42.9698C844.501 54.3857 842.24 65.6954 837.789 76.2083C816.654 129.791 757.992 149.74 704.805 153.268C698.935 153.648 693.066 153.648 687.197 153.648C584.73 153.648 499.064 102.422 394.635 102.422C384.983 102.357 375.336 102.865 365.745 103.942C301.99 109.416 240.181 157.16 240.181 224.793C240.181 227.925 240.576 231.438 240.576 234.57C245.244 280.049 286.708 301.959 327.063 301.959Z" fill="white" fill-opacity="0.1"/>
<path d="M562.834 170.146C575.348 164.611 585.551 163.09 592.56 163.09C597.654 163.09 601.166 163.866 603.128 165.037C603.128 165.037 603.903 165.037 603.903 165.432L605.424 163.911C605.028 163.136 605.028 163.136 604.253 163.136C601.896 161.615 595.647 159.608 587.041 159.608C577.626 159.793 568.334 161.785 559.671 165.478C389.176 229.993 384.478 453.707 231.164 521.765C207.932 531.712 182.903 536.774 157.632 536.636C140.405 536.629 123.228 534.789 106.39 531.146C51.2414 518.633 12.5138 476.408 3.52759 420.848C2.64127 413.581 2.13375 406.273 2.00707 398.953C2.00707 352.014 24.6932 307.038 66.5378 281.615C91.1151 266.883 119.201 259.032 147.855 258.883C202.594 258.883 251.889 289.78 251.889 354.675C252.017 359.645 251.758 364.617 251.113 369.546C244.849 431.735 197.895 458.724 158.362 458.724C128.636 458.724 103.213 443.854 101.646 416.484H99.3049C100.825 445.024 129.806 460.671 163.06 460.671C208.037 460.671 261.62 432.511 268.28 369.151C268.66 364.072 269.055 359.374 269.055 354.675C269.055 286.617 213.906 255.72 154.454 255.72C123.107 255.785 92.3376 264.153 65.2757 279.972C23.4311 305 -0.106445 350.372 -0.106445 397.706C-0.0347492 405.433 0.62093 413.144 1.85501 420.772C10.0658 477.487 49.1734 520.518 106.284 532.637C123.722 536.774 141.58 538.877 159.502 538.901C183.989 539.019 208.278 534.505 231.088 525.597C407.164 457.234 426.718 226.07 562.834 170.146Z" fill="white" fill-opacity="0.1"/>
<path d="M1357.58 556.189C1356.06 543.28 1348.2 531.146 1335.29 520.989C1321.98 511.212 1303.6 503.382 1280.91 499.474C1268.63 497.515 1256.2 496.6 1243.77 496.737C1192.07 496.737 1123.65 511.212 1040.38 549.955L1039.99 544.876C1039.99 493.179 1075.58 444.751 1106.08 403.681C1108.82 400.154 1111.18 396.246 1113.52 392.718C1122.9 379.824 1128.38 368.086 1128.38 362.612C1128.38 345.795 1101.78 348.532 1090.83 342.268C1091.42 341.265 1091.93 340.218 1092.35 339.135C1097.04 330.149 1098.6 323.489 1098.6 319.186C1098.69 318.257 1098.56 317.319 1098.22 316.449C1097.43 312.937 1095.49 311.766 1093.13 311.766C1087.66 311.766 1079.44 321.543 1079.44 330.925C1079.35 333.418 1080.04 335.877 1081.41 337.965C1082.73 339.978 1084.31 341.816 1086.09 343.439C1074.26 366.125 1057.46 384.66 1052.39 389.997H1052.06C1051.85 389.977 1051.63 390.002 1051.43 390.07C1051.23 390.138 1051.05 390.248 1050.89 390.392C1033.68 411.512 1009.84 431.857 989.871 443.2C982.831 447.107 973.845 451.41 966.41 451.806L962.882 452.186C957.408 452.186 953.896 449.449 953.501 442.409V440.463C953.501 428.299 962.502 413.093 973.45 398.603H980.49C1015.29 398.223 1047.76 370.048 1047.76 354.021C1047.76 347.757 1042.28 343.378 1030.16 343.378H1027.43C997.018 344.625 957.834 376.829 943.085 409.383C925.66 427.63 899.766 452.079 887.008 452.901L886.628 452.505C886.233 452.11 886.233 451.73 886.233 450.985C886.233 440.432 924.565 397.767 932.776 388.02C942.157 376.677 946.461 366.9 946.856 359.86C946.856 353.2 944.514 347.346 937.474 345.78C936.091 345.291 934.638 345.024 933.171 344.989C929.217 345.253 925.358 346.319 921.828 348.122C900.708 357.899 872.548 386.059 855.336 402.48C904.616 335.213 987.925 209.664 1052.08 158.422C1064.24 149.436 1094.65 131.828 1117 131.828C1127.55 131.828 1136.16 135.356 1140.46 145.133C1141 145.617 1141.7 145.892 1142.42 145.908L1142.8 145.513C1143.2 145.133 1143.6 144.738 1143.6 144.342V143.171C1137.33 130.658 1124.42 126.354 1109.96 126.354C1086.48 126.354 1057.94 137.698 1043.86 146.699C980.976 186.567 897.622 313.621 842.655 401.994C827.085 419.358 798.18 449.251 782.245 450.194H781.454C778.717 450.194 777.546 448.233 777.546 445.1C777.546 427.903 813.917 368.831 850.683 319.947H872.594C872.984 319.763 873.325 319.489 873.589 319.148C873.854 318.807 874.033 318.409 874.114 317.985C874.086 317.591 873.917 317.221 873.638 316.941C873.358 316.662 872.988 316.493 872.594 316.465H853.04C880.029 280.094 902.32 252.329 905.832 248.422H899.583C890.186 255.842 864.763 282.435 836.223 316.465H810.374C809.584 316.465 809.204 316.86 809.204 317.985C809.204 318.776 809.584 319.947 810.374 319.947H833.091C811.682 344.853 791.261 372.298 777.394 396.064C760.669 415.07 739.381 432.83 721.227 443.2C714.187 447.107 705.185 451.41 697.765 451.806L694.237 452.186C688.763 452.186 685.251 449.449 684.856 442.409V440.463C684.856 428.299 693.842 413.093 704.805 398.603H711.845C746.65 398.223 779.113 370.048 779.113 354.021C779.113 347.757 773.639 343.378 761.52 343.378H758.768C720.451 344.898 668.419 395.395 668.419 434.122C668.354 436.344 668.486 438.568 668.814 440.767C670.776 452.931 680.157 456.808 690.725 456.808C692.816 456.874 694.908 456.741 696.974 456.413C706.217 454.685 715.012 451.095 722.823 445.861C738.226 437.711 755.362 424.178 770.37 408.927C763.603 422.292 759.589 433.894 759.589 442.379C759.589 449.038 761.931 454.117 768.195 456.063C769.849 456.535 771.555 456.796 773.274 456.839C776.338 456.839 779.381 456.325 782.275 455.318C798.742 450.088 817.582 433.712 832.832 417.959C825.443 429.941 818.707 440.949 812.777 450.62C812.333 451.085 811.998 451.642 811.796 452.252C811.593 452.862 811.528 453.509 811.606 454.147C811.598 454.509 811.663 454.869 811.797 455.204C811.932 455.54 812.133 455.845 812.389 456.101C812.645 456.357 812.95 456.558 813.286 456.693C813.622 456.827 813.981 456.893 814.343 456.884C815.344 456.866 816.318 456.562 817.151 456.007C817.984 455.451 818.64 454.669 819.041 453.752L844.434 418.537C854.211 409.155 911.337 351.634 925.386 351.634H925.782C927.743 352.029 928.518 352.82 928.518 354.386C928.518 358.294 922.649 365.729 921.083 367.28C907.794 383.717 886.674 409.535 878.509 429.089C876.554 432.978 875.484 437.252 875.376 441.603C875.413 443.452 875.674 445.29 876.152 447.077C876.605 449.606 877.839 451.929 879.68 453.722C881.326 455.128 883.387 455.956 885.549 456.078H887.069C899.689 455.333 922.604 434.898 940.135 417.092C938.225 422.587 937.198 428.351 937.094 434.168C937.031 436.389 937.158 438.612 937.474 440.812C939.436 452.977 948.817 456.854 959.385 456.854C961.481 456.919 963.578 456.787 965.649 456.459C974.903 454.734 983.708 451.143 991.529 445.906C1011.78 435.263 1035 415.176 1052.47 394.209C1052.74 394.049 1053.03 393.941 1053.34 393.889C1067.32 379.255 1079.26 362.802 1088.84 344.974C1095.88 349.277 1108.4 349.673 1113.17 353.185C1113.95 354.036 1114.38 355.16 1114.34 356.317C1114.34 358.659 1112.82 361.791 1110.04 365.714C1104.96 373.134 1099.49 380.919 1093.62 388.385C1063.11 429.849 1028.23 475.222 1028.23 527.239C1028.33 536.2 1029.39 545.125 1031.38 553.863C1014.96 562.089 998.523 570.3 981.706 579.712C972.324 585.185 962.152 590.279 952.816 595.753C901.119 516.352 792.052 487.021 701.703 486.626H700.183C670.046 486.626 623.092 493.301 579.56 508.384C640.746 424.208 681.1 346.039 707.633 335.653L705.292 335.258C687.684 336.779 669.301 352.075 651.709 372.024L653.655 365.775C653.655 363.813 654.05 362.247 654.05 360.681C654.05 354.432 651.313 348.943 644.669 346.206C640.886 344.928 636.922 344.271 632.93 344.26C607.081 344.26 576.033 370.671 559.459 398.877C554.167 402.556 548.283 405.658 543.752 405.658C542.346 405.651 540.979 405.192 539.853 404.349C538.728 403.506 537.904 402.323 537.503 400.975C537.178 399.964 537.044 398.902 537.107 397.843C537.382 391.837 539.572 386.077 543.357 381.406V381.026C543.357 381.026 543.752 381.026 543.752 380.235L546.109 377.893C546.375 377.747 546.592 377.523 546.73 377.252C546.868 376.981 546.922 376.675 546.884 376.373C549.226 371.294 551.583 365.425 551.583 359.951C551.712 357.114 551.001 354.301 549.537 351.866C548.074 349.431 545.924 347.483 543.357 346.267C539.414 345.046 535.319 344.391 531.192 344.32C506.545 344.32 479.951 367.007 467.042 385.77C452.916 403.651 446.272 422.034 446.272 435.263C446.272 448.172 452.141 456.778 463.484 456.778C471.299 456.778 481.472 452.87 493.985 443.473C504.629 436.053 516.291 424.315 528.41 409.064C531.046 410.488 534.023 411.161 537.016 411.01C542.976 411.01 549.728 408.486 555.946 404.928C550.701 415.298 547.568 425.668 547.568 434.837C547.503 438.03 548.018 441.209 549.089 444.218C551.431 451.654 556.92 456.732 565.511 456.732C573.341 456.732 583.118 452.824 596.027 443.428L608.191 432.875C587.984 462.814 566.377 493.498 543.554 523.209C505.116 542.504 475.237 570.056 471.984 607.43C415.405 666.548 353.657 711.996 289.05 723.978L289.841 726.32C361.594 712.893 422.384 675.565 473.823 629.007C476.16 636.985 480.062 644.418 485.303 650.872C508.385 680.978 555.247 695.849 616.721 695.849C637.667 695.742 658.579 694.172 679.306 691.15C756.746 680.202 848.281 651.252 941.747 605.104C972.264 658.322 973.83 710.704 973.83 713.441C973.83 714.232 974.605 715.402 975.001 715.402C975.554 715.384 976.085 715.181 976.51 714.825C976.934 714.47 977.227 713.982 977.342 713.441C978.599 704.493 979.275 695.472 979.365 686.437C979.62 655.362 971.074 624.851 954.717 598.429C964.159 593.396 973.891 587.861 983.272 582.753C999.694 573.371 1016.13 565.145 1032.16 557.33C1050.94 629.691 1127.6 652.377 1194.49 653.122H1197.53C1247.6 653.122 1310.56 639.437 1344.21 599.144C1353.2 587.421 1358.29 575.287 1358.29 563.168C1358.25 560.826 1358.01 558.492 1357.58 556.189ZM1018.08 355.147C1025.51 350.448 1030.61 348.107 1034.51 348.107C1038.42 348.107 1040.38 350.843 1040.38 354.371C1040.38 366.885 1018.47 393.904 980.535 395.045H976.232C989.917 377.833 1007.52 362.187 1018.08 355.147ZM749.386 355.147C756.822 350.448 761.9 348.107 765.808 348.107C769.716 348.107 771.677 350.843 771.677 354.371C771.677 366.885 749.782 393.904 711.845 395.045H707.542C721.227 377.833 738.834 362.187 749.386 355.147ZM521.765 398.177C521.777 399.861 522.129 401.525 522.8 403.07C523.472 404.614 524.449 406.007 525.673 407.163C515.89 419.717 504.593 431.014 492.039 440.797C488.116 443.929 475.222 451.365 466.996 451.365C463.089 451.365 459.956 449.844 459.181 445.496V442.759C459.181 422.034 496.342 377.376 509.251 363.692C518.238 354.69 528.41 350.783 536.225 350.783C543.265 350.783 548.389 354.31 548.389 360.955C548.389 364.863 546.869 369.561 543.296 375.43C534.674 378.608 521.765 388.385 521.765 398.177ZM593.731 440.752C589.428 443.488 577.294 451.319 568.688 451.319C566.774 451.458 564.882 450.84 563.42 449.597C561.958 448.354 561.043 446.586 560.873 444.675L560.478 442.318C560.478 421.988 597.639 376.616 611.324 363.707C619.93 354.706 630.102 350.403 637.917 350.403C644.957 350.403 650.082 354.325 650.082 360.97V363.312C649.291 366.049 648.12 372.693 646.949 377.787C636.306 391.472 627 405.552 617.619 419.632C610.153 426.717 601.942 434.153 593.731 440.797V440.752ZM538.886 529.322C518.77 555.17 497.741 580.259 475.937 603.325C480.422 571.394 505.785 547.096 538.886 529.367V529.322ZM678.971 687.668C657.979 690.624 636.811 692.148 615.612 692.23C555.779 692.23 510.012 678.15 487.721 648.819C482.613 642.099 478.911 634.42 476.834 626.239C514.74 591.45 547.584 551.734 576.002 513.022C620.508 497.026 669.575 490.016 700.091 490.016H701.612C796.659 490.412 887.799 515.059 939.816 601.881C847.156 648.484 755.636 677.025 678.971 687.668ZM1341.16 596.924C1309.07 635.971 1246.98 649.655 1197.6 649.655H1194.56C1134.32 648.865 1046.31 627.745 1040.84 553.437C1123.77 514.709 1191.81 500.219 1243.45 500.219C1255.76 500.088 1268.06 501.003 1280.21 502.956C1302.5 506.879 1320.89 513.919 1333.02 524.076C1345.54 533.473 1352.58 544.42 1354.92 556.934C1354.92 558.896 1355.31 560.842 1355.31 562.803C1355.24 573.782 1350.54 585.915 1341.16 596.863V596.924Z" fill="white" fill-opacity="0.1"/>
</g>
<defs>
<clipPath id="clip0_99_3781">
<rect width="1358.35" height="726.32" fill="white"/>
</clipPath>
</defs>
</svg>
