<svg width="1434" height="766" viewBox="0 0 1434 766" fill="none" xmlns="http://www.w3.org/2000/svg">
<path d="M344.961 318.458C370.957 318.458 396.126 309.796 412.234 293.299C423.776 281.349 428.324 265.678 428.324 249.595C428.324 233.511 423.776 217.409 416.764 206.681L414.697 207.921C419.245 214.534 420.899 223.196 420.899 232.666C420.899 251.23 413.061 272.687 401.915 284.242C384.997 300.739 359.415 309.814 334.246 309.814C297.517 309.814 262.028 290.424 258.307 247.115C257.97 243.273 257.832 239.416 257.893 235.56C257.893 166.678 321.032 120.889 386.238 115.156C393.249 114.743 400.261 114.329 406.859 114.329C506.312 114.329 604.094 178.269 720.879 178.269C727.063 178.269 733.661 178.269 739.864 177.856C794.732 174.136 864.055 141.914 887.175 82.9885C891.54 71.7894 893.777 59.8749 893.773 47.8559C893.773 30.1189 888.811 12.3818 877.269 0L876.029 2.06664C886.348 13.6218 890.878 29.2922 890.878 45.3759C890.952 57.418 888.567 69.3485 883.867 80.4367C861.592 136.954 799.694 157.98 743.639 161.7C737.455 162.113 731.27 162.113 725.068 162.113C616.967 162.113 526.592 108.076 416.423 108.076C406.211 108.017 396.006 108.569 385.86 109.729C318.587 115.497 253.399 165.815 253.399 237.177C253.399 240.484 253.812 244.185 253.812 247.492C258.72 295.348 302.461 318.458 344.961 318.458Z" fill="#050396" fill-opacity="0.5"/>
<path d="M593.793 179.455C606.989 173.669 617.722 172.015 625.147 172.015C630.54 172.015 634.225 172.842 636.293 174.082C636.293 174.082 637.12 174.082 637.12 174.495L638.756 172.842C638.342 172.015 638.342 172.015 637.533 172.015C635.052 170.38 628.544 168.313 619.376 168.313C609.439 168.508 599.631 170.606 590.485 174.495C410.58 242.55 405.618 478.487 243.871 550.262C219.363 560.754 192.956 566.088 166.296 565.932C148.123 565.922 130.002 563.988 112.236 560.164C54.0596 546.955 13.2138 502.406 3.72144 443.84C2.77375 436.176 2.22167 428.468 2.06745 420.747C2.06745 371.238 25.9961 323.814 70.1499 297.001C96.0943 281.477 125.739 273.215 155.977 273.082C213.758 273.082 265.75 305.663 265.75 374.131C265.887 379.368 265.61 384.608 264.923 389.802C258.307 455.395 208.796 483.842 167.123 483.842C135.769 483.842 108.946 468.172 107.292 439.311H104.811C106.465 469.412 136.992 485.909 172.067 485.909C219.528 485.909 276.051 456.221 283.081 389.388C283.476 383.997 283.889 379.073 283.889 374.131C283.889 302.357 225.713 269.776 162.988 269.776C129.919 269.843 97.4586 278.667 68.9094 295.348C24.7556 321.747 0 369.603 0 419.507C0.072331 427.659 0.763459 435.793 2.06745 443.84C10.7328 503.646 51.9922 549.022 112.236 561.799C130.626 566.167 149.461 568.387 168.363 568.412C194.193 568.536 219.812 563.774 243.871 554.377C429.565 482.207 450.185 238.435 593.793 179.455Z" fill="#050396" fill-opacity="0.5"/>
<path d="M1432.27 586.563C1430.61 572.941 1422.36 560.164 1408.75 549.435C1394.71 539.12 1375.31 530.872 1351.38 526.738C1338.42 524.686 1325.31 523.724 1312.19 523.863C1257.72 523.863 1185.5 539.12 1097.62 579.95L1097.21 574.558C1097.21 520.107 1134.75 468.963 1166.95 425.653C1169.82 421.951 1172.34 417.818 1174.79 414.098C1184.69 400.494 1190.46 388.131 1190.46 382.344C1190.46 364.607 1162.4 367.5 1150.91 360.905C1151.54 359.846 1152.1 358.741 1152.57 357.598C1157.53 348.11 1159.16 341.101 1159.16 336.555C1159.26 335.579 1159.12 334.594 1158.77 333.679C1157.94 329.959 1155.87 328.72 1153.37 328.72C1147.6 328.72 1138.99 339.035 1138.99 348.937C1138.9 351.565 1139.62 354.158 1141.06 356.358C1142.45 358.486 1144.11 360.425 1146 362.127C1136.33 379.963 1124.37 396.466 1110.44 411.223H1110.1C1109.88 411.194 1109.65 411.217 1109.43 411.288C1109.22 411.36 1109.02 411.479 1108.86 411.636C1090.7 433.902 1065.53 455.359 1044.5 467.345C1037.07 471.479 1027.58 476.007 1019.74 476.421L1016.02 476.834C1010.25 476.834 1006.53 473.958 1006.12 466.519V464.47C1006.12 451.675 1015.61 435.591 1027.17 420.334H1034.59C1071.32 419.921 1105.57 390.215 1105.57 373.305C1105.57 366.71 1099.78 362.163 1087 362.163H1084C1051.83 363.475 1010.59 397.403 995.025 431.763C976.633 450.974 949.307 476.798 935.859 477.66L935.446 477.247C935.032 476.834 935.032 476.42 935.032 475.594C935.032 464.47 975.483 419.507 984.148 409.192C994.054 397.224 998.53 386.927 998.998 379.487C998.998 372.478 996.517 366.296 989.092 364.643C987.634 364.134 986.105 363.855 984.562 363.816C980.388 364.098 976.314 365.222 972.588 367.123C950.313 377.438 920.596 407.126 902.474 424.449C954.466 353.501 1042.36 221.111 1110.03 167.073C1122.83 157.585 1154.97 139.021 1178.53 139.021C1189.67 139.021 1198.75 142.741 1203.28 153.056C1203.85 153.573 1204.58 153.867 1205.35 153.883L1205.76 153.47C1206.18 153.056 1206.59 152.643 1206.59 152.23V150.99C1199.99 137.781 1186.36 133.253 1171.1 133.253C1146.34 133.253 1116.21 145.221 1101.36 154.692C1034.99 196.761 947.041 330.804 889.063 423.946C872.631 442.258 842.14 473.779 825.313 474.767H824.396C821.52 474.767 820.279 472.718 820.279 469.376C820.279 451.226 858.644 388.939 897.44 337.381H920.542C920.961 337.196 921.33 336.914 921.617 336.557C921.905 336.201 922.103 335.781 922.196 335.333C922.163 334.905 921.978 334.504 921.675 334.2C921.371 333.897 920.97 333.712 920.542 333.679H899.903C928.362 295.312 951.896 266.038 955.635 261.905H949.037C939.131 269.74 912.308 297.846 882.195 333.679H854.959C854.132 333.679 853.718 334.093 853.718 335.333C853.718 336.159 854.132 337.381 854.959 337.381H878.887C856.307 363.636 834.769 392.587 820.135 417.638C802.553 437.712 780.009 456.437 760.808 467.309C753.365 471.443 743.873 475.971 736.034 476.385L732.331 476.798C726.542 476.798 722.839 473.923 722.425 466.483V464.434C722.425 451.639 731.918 435.555 743.459 420.298H750.902C787.613 419.885 821.861 390.179 821.861 373.269C821.861 366.674 816.09 362.127 803.308 362.127H800.413C759.981 363.78 705.13 416.991 705.13 457.821C705.062 460.171 705.2 462.522 705.544 464.847C707.611 477.624 717.499 481.758 728.646 481.758C730.859 481.826 733.074 481.688 735.261 481.344C745.023 479.508 754.308 475.705 762.552 470.167C778.732 461.577 796.89 447.29 812.728 431.206C805.537 445.313 801.348 457.551 801.348 466.447C801.348 473.473 803.829 478.829 810.427 480.823C812.181 481.334 813.994 481.612 815.82 481.65C819.055 481.639 822.265 481.08 825.313 479.997C842.68 474.462 862.563 457.192 878.653 440.605C870.869 453.184 863.768 464.847 857.493 475.037C857.028 475.529 856.678 476.117 856.467 476.76C856.255 477.403 856.188 478.085 856.271 478.757C856.258 479.138 856.324 479.519 856.464 479.874C856.604 480.23 856.815 480.553 857.085 480.824C857.354 481.095 857.676 481.308 858.031 481.45C858.385 481.592 858.765 481.66 859.147 481.65C860.204 481.632 861.234 481.31 862.114 480.724C862.993 480.138 863.686 479.312 864.109 478.343L890.914 441.414C901.234 431.512 961.478 370.879 976.346 370.879H976.759C978.809 371.292 979.635 372.119 979.635 373.772C979.635 377.905 973.451 385.74 971.797 387.394C957.774 404.7 935.482 431.925 926.852 452.555C924.801 456.664 923.678 461.173 923.562 465.764C923.606 467.713 923.884 469.65 924.389 471.532C924.86 474.198 926.155 476.65 928.093 478.541C929.828 480.02 932 480.891 934.277 481.021H935.859C949.163 480.23 973.361 458.683 991.843 439.904C989.848 445.691 988.78 451.755 988.678 457.875C988.61 460.224 988.748 462.576 989.092 464.901C991.159 477.678 1001.07 481.812 1012.19 481.812C1014.41 481.88 1016.62 481.742 1018.81 481.398C1028.55 479.56 1037.81 475.77 1046.05 470.257C1067.4 458.971 1091.89 437.909 1110.32 415.734C1110.6 415.573 1110.91 415.458 1111.23 415.392C1126.02 399.973 1138.65 382.63 1148.79 363.834C1156.21 368.381 1169.41 368.794 1174.37 372.496C1175.2 373.395 1175.65 374.581 1175.61 375.803C1175.61 378.283 1173.96 381.571 1171.06 385.705C1165.67 393.54 1159.92 401.788 1153.73 409.623C1121.55 453.346 1084.82 501.184 1084.82 556.048C1084.93 565.49 1086.04 574.894 1088.13 584.101C1070.8 592.763 1053.47 601.424 1035.73 611.326C1025.82 617.095 1015.09 622.45 1005.16 628.237C950.709 544.493 835.578 513.566 740.259 513.224H738.605C706.802 513.224 657.255 520.269 611.34 536.173C675.88 447.398 718.452 364.966 746.444 354.004L743.963 353.591C725.517 355.154 706.029 371.328 687.458 392.282L689.562 385.705C689.562 383.638 689.975 381.985 689.975 380.313C690.153 377.049 689.289 373.813 687.509 371.072C685.729 368.33 683.124 366.223 680.069 365.056C676.08 363.701 671.896 363.003 667.682 362.99C640.464 362.99 607.672 390.862 590.18 420.586C584.606 424.485 578.386 427.774 573.604 427.774C572.117 427.765 570.673 427.278 569.484 426.385C568.296 425.492 567.427 424.239 567.006 422.814C566.665 421.753 566.525 420.638 566.592 419.525C566.882 413.194 569.194 407.122 573.19 402.202V401.788C573.19 401.788 573.604 401.788 573.604 400.962L576.085 398.482C576.372 398.32 576.604 398.076 576.751 397.781C576.899 397.487 576.954 397.155 576.912 396.828C579.393 391.437 581.856 385.291 581.856 379.505C581.99 376.521 581.239 373.565 579.697 371.007C578.155 368.449 575.891 366.404 573.19 365.128C569.049 363.838 564.745 363.143 560.408 363.061C534.412 363.061 506.348 386.998 492.739 406.784C477.871 425.761 470.86 445.152 470.86 459.169C470.86 472.79 477.044 481.866 489.018 481.866C497.27 481.866 508.002 477.732 521.198 467.831C532.344 459.995 544.731 447.631 557.514 431.53C560.294 433.036 563.434 433.751 566.592 433.596C572.885 433.596 580.004 430.937 586.584 427.235C581.029 438.161 577.739 449.105 577.739 458.755C577.68 462.129 578.241 465.485 579.393 468.657C581.856 476.492 587.645 481.866 596.705 481.866C604.975 481.866 615.277 477.732 628.904 467.831L641.686 456.689C620.365 488.281 597.568 520.646 573.496 551.933C532.938 572.258 501.44 601.317 497.989 640.708C438.284 702.941 373.132 750.815 304.96 763.52L305.787 766C381.492 751.821 445.637 712.465 499.948 663.315C502.414 671.735 506.533 679.579 512.065 686.39C536.408 718.144 585.937 733.832 650.711 733.832C672.815 733.743 694.886 732.11 716.762 728.944C798.454 717.389 895.013 686.875 993.622 638.21C1025.75 694.207 1027.55 749.485 1027.55 752.306C1027.55 753.133 1028.37 754.373 1028.79 754.373C1029.35 754.327 1029.88 754.102 1030.31 753.729C1030.73 753.357 1031.02 752.858 1031.14 752.306C1032.45 742.878 1033.14 733.376 1033.21 723.859C1033.48 691.087 1024.47 658.907 1007.21 631.04C1017.12 625.649 1027.44 619.916 1037.34 614.543C1054.68 604.641 1072.01 595.979 1088.92 587.731C1108.7 664.052 1189.6 687.971 1260.16 688.798H1263.45C1316.27 688.798 1382.72 674.421 1418.19 631.867C1427.68 619.503 1433.06 606.708 1433.06 593.931C1433 591.457 1432.73 588.993 1432.27 586.563ZM1074.09 374.509C1081.93 369.567 1087.31 367.087 1091.42 367.087C1095.54 367.087 1097.62 369.98 1097.62 373.682C1097.62 386.891 1074.5 415.338 1034.49 416.578H1029.94C1044.39 398.464 1062.96 381.967 1074.09 374.545V374.509ZM790.616 374.509C798.454 369.567 803.829 367.087 807.946 367.087C812.063 367.087 814.131 369.98 814.131 373.682C814.131 386.891 791.029 415.338 751.01 416.578H746.462C760.916 398.464 779.451 381.967 790.616 374.545V374.509ZM550.466 419.849C550.481 421.626 550.853 423.381 551.56 425.011C552.267 426.641 553.295 428.113 554.583 429.337C544.256 442.568 532.343 454.481 519.113 464.811C514.978 468.1 501.369 475.935 492.703 475.935C488.568 475.935 485.26 474.282 484.451 469.753V466.932C484.451 445.08 523.643 398.05 537.253 383.62C546.745 374.131 557.478 370.016 565.73 370.016C573.154 370.016 578.53 373.718 578.53 380.799C578.53 384.932 576.876 389.784 573.136 396.074C564.076 399.29 550.466 409.606 550.466 419.849ZM626.387 464.775C621.857 467.651 609.056 475.899 599.978 475.899C597.957 476.049 595.958 475.397 594.414 474.086C592.87 472.774 591.904 470.908 591.726 468.891L591.312 466.411C591.312 444.972 630.522 397.116 644.958 383.512C653.947 374.024 664.734 369.495 673.022 369.495C680.447 369.495 685.804 373.61 685.804 380.619V383.099C684.977 385.992 683.737 393.001 682.514 398.356C671.368 412.732 661.462 427.648 651.556 442.492C643.718 450.022 635.052 457.857 626.387 464.883V464.775ZM568.516 558.223C547.302 585.502 525.135 611.901 502.142 636.234C506.888 602.593 533.621 576.984 568.516 558.223ZM716.349 725.063C694.201 728.239 671.863 729.896 649.489 730.023C586.368 730.023 538.026 715.179 514.564 684.233C509.174 677.141 505.267 669.037 503.077 660.404C543.077 623.726 577.703 581.836 607.69 541.043C654.648 524.169 706.407 516.783 738.623 516.783H740.277C840.54 517.196 936.686 543.182 991.573 634.742C893.773 683.892 797.213 714.011 716.349 725.135V725.063ZM1414.94 629.369C1381.1 670.701 1315.48 685.078 1263.49 685.078H1260.2C1196.65 684.251 1103.79 661.986 1098.04 583.616C1185.5 542.786 1257.3 527.511 1311.78 527.511C1324.76 527.368 1337.74 528.336 1350.56 530.404C1374.09 534.538 1393.47 541.959 1406.29 552.67C1419.48 562.572 1426.91 574.127 1429.39 587.317C1429.39 589.384 1429.8 591.451 1429.8 593.517C1429.78 605.108 1424.86 617.904 1414.94 629.441V629.369Z" fill="#050396" fill-opacity="0.5"/>
<path d="M609.596 318.71V320.399H623.619L652.383 320.507C652.383 314.81 653.857 305.537 653.965 300.577L652.275 299.733C651.646 301.835 648.788 314.505 646.99 315.763C644.886 316.823 636.868 317.021 628.005 317.236C627.246 317.258 626.505 317.001 625.922 316.515C625.339 316.028 624.955 315.345 624.841 314.595C623.78 307.963 623.151 291.61 623.151 275.472C623.151 269.776 623.259 238.669 625.47 234.877C626.207 233.601 628.221 233.403 629.479 233.295V231.606H609.704V233.295C610.962 233.403 612.976 233.601 613.713 234.877C616.248 239.1 615.51 269.578 615.51 275.904C615.51 292.077 615.924 313.337 613.713 317.128C612.868 318.404 610.854 318.602 609.596 318.71Z" fill="#050396" fill-opacity="0.5"/>
<path d="M679.009 253.854C665.507 253.854 656.446 267.565 656.446 287.495C656.446 307.424 665.615 322.304 679.009 322.304C692.402 322.304 701.481 307.316 701.481 287.495C701.481 267.35 692.204 253.854 679.009 253.854ZM679.009 319.662C667.718 319.662 666.046 302.159 666.046 287.495C666.046 273.118 667.718 256.603 679.009 256.603C690.299 256.603 691.989 272.777 691.989 287.495C691.989 302.213 690.191 319.662 679.009 319.662Z" fill="#050396" fill-opacity="0.5"/>
<path d="M722.587 320.399L722.695 320.507V320.399H725.859C729.67 306.903 740.241 272.939 744.952 262.605C745.429 261.283 746.328 260.155 747.511 259.395C748.694 258.635 750.094 258.285 751.496 258.4V256.603H734.093V258.292C736.933 258.292 738.947 259.55 738.947 262.498C738.947 269.147 732.403 287.495 727.333 303.004C727.333 303.417 727.136 303.848 727.028 304.261L714.569 263.504C713.634 260.341 715.845 258.652 719.009 258.346V256.657H697.166V258.346C701.499 258.454 703.494 260.036 705.598 265.535C709.193 275.023 715.63 297.163 722.479 320.058V320.363L722.587 320.399Z" fill="#050396" fill-opacity="0.5"/>
<path d="M786.858 277.683C787.171 277.639 787.472 277.533 787.742 277.371C788.013 277.209 788.249 276.994 788.435 276.74C788.621 276.485 788.754 276.195 788.826 275.888C788.898 275.581 788.907 275.262 788.854 274.951C787.685 261.132 779.038 253.962 768.179 253.962C755.199 253.962 746.606 267.35 746.606 286.866C746.606 307.227 754.516 322.609 768.017 322.609C779.721 322.609 787.433 311.342 788.584 300.685L786.373 300.254C785.312 307.748 779.182 317.775 770.66 317.775C760.52 317.775 755.882 302.788 755.882 286.866C755.829 283.799 755.967 280.732 756.296 277.683H786.858ZM768.88 257.017C776.071 257.017 779.325 264.402 780.063 270.944C780.137 271.438 780.101 271.942 779.958 272.421C779.815 272.899 779.569 273.341 779.236 273.713C778.903 274.085 778.491 274.38 778.031 274.575C777.572 274.771 777.074 274.862 776.575 274.843H756.673C757.626 267.997 760.161 257.017 768.916 257.017H768.88Z" fill="#050396" fill-opacity="0.5"/>
<path d="M796.98 328.198L797.717 330.085C800.738 328.949 803.374 326.978 805.316 324.4C807.258 321.822 808.426 318.746 808.683 315.529C809.007 310.893 806.256 307.838 803.632 307.514C803.2 307.514 803.002 307.406 802.786 307.406C801.33 307.512 799.965 308.152 798.952 309.204C797.94 310.256 797.353 311.644 797.303 313.103C796.872 316.481 798.454 319.752 802.571 319.86C803.092 322.52 800.881 325.682 796.98 328.198Z" fill="#050396" fill-opacity="0.5"/>
</svg>
