<svg width="1407" height="752" viewBox="0 0 1407 752" fill="none" xmlns="http://www.w3.org/2000/svg">
<g clip-path="url(#clip0_87_3487)">
<path d="M338.68 312.642C364.202 312.642 388.913 304.138 404.728 287.941C416.06 276.209 420.525 260.824 420.525 245.033C420.525 229.242 416.06 213.433 409.176 202.9L407.146 204.117C411.612 210.61 413.236 219.114 413.236 228.412C413.236 246.638 405.54 267.704 394.597 279.049C377.988 295.246 352.871 304.156 328.16 304.156C292.1 304.156 257.257 285.119 253.604 242.598C253.273 238.826 253.137 235.039 253.198 231.253C253.198 163.626 315.187 118.67 379.205 113.042C386.089 112.636 392.973 112.23 399.451 112.23C497.094 112.23 593.095 175.006 707.754 175.006C713.825 175.006 720.303 175.006 726.393 174.6C780.262 170.948 848.323 139.313 871.022 81.46C875.307 70.4647 877.504 58.7672 877.5 46.967C877.5 29.5529 872.628 12.1388 861.296 -0.0175781L860.078 2.01144C870.21 13.3562 874.658 28.7413 874.658 44.5322C874.73 56.355 872.388 68.0682 867.774 78.9546C845.905 134.443 785.134 155.086 730.099 158.738C724.028 159.144 717.956 159.144 711.866 159.144C605.733 159.144 517.004 106.09 408.841 106.09C398.815 106.033 388.795 106.575 378.835 107.713C312.786 113.377 248.785 162.779 248.785 232.841C248.785 236.087 249.191 239.722 249.191 242.968C254.01 289.953 296.954 312.642 338.68 312.642Z" fill="black" fill-opacity="0.1"/>
<path d="M582.982 176.17C595.937 170.489 606.475 168.866 613.764 168.866C619.059 168.866 622.678 169.677 624.708 170.894C624.708 170.894 625.52 170.895 625.52 171.3L627.126 169.677C626.72 168.865 626.72 168.866 625.926 168.866C623.49 167.26 617.1 165.231 608.098 165.231C598.342 165.422 588.713 167.482 579.734 171.3C403.104 238.116 398.233 469.757 239.43 540.225C215.369 550.526 189.443 555.763 163.268 555.61C145.426 555.6 127.635 553.701 110.193 549.947C53.0753 536.979 12.9732 493.241 3.65369 435.741C2.72325 428.216 2.18122 420.649 2.02981 413.069C2.02981 364.461 25.5227 317.9 68.8726 291.576C94.3447 276.334 123.45 268.223 153.137 268.092C209.866 268.092 260.911 300.08 260.911 367.302C261.046 372.443 260.774 377.588 260.099 382.687C253.604 447.085 204.994 475.015 164.08 475.015C133.297 475.015 106.963 459.63 105.339 431.294H102.903C104.527 460.847 134.498 477.044 168.934 477.044C215.531 477.044 271.025 447.897 277.926 382.281C278.315 376.988 278.721 372.154 278.721 367.302C278.721 296.834 221.603 264.846 160.02 264.846C127.554 264.912 95.6841 273.575 67.6547 289.953C24.3049 315.871 0 362.855 0 411.851C0.071014 419.854 0.749558 427.84 2.02981 435.741C10.5374 494.458 51.0455 539.008 110.193 551.552C128.248 555.841 146.74 558.02 165.298 558.045C190.657 558.166 215.81 553.491 239.43 544.266C421.743 473.409 441.989 234.076 582.982 176.17Z" fill="black" fill-opacity="0.1"/>
<path d="M1406.19 575.865C1404.56 562.491 1396.46 549.947 1383.1 539.414C1369.32 529.286 1350.27 521.188 1326.78 517.13C1314.05 515.115 1301.18 514.171 1288.3 514.307C1234.82 514.307 1163.92 529.286 1077.64 569.372L1077.23 564.079C1077.23 510.62 1114.09 460.406 1145.7 417.886C1148.52 414.251 1151 410.193 1153.4 406.541C1163.12 393.185 1168.79 381.046 1168.79 375.365C1168.79 357.951 1141.23 360.791 1129.96 354.316C1130.58 353.276 1131.12 352.191 1131.58 351.07C1136.45 341.754 1138.06 334.873 1138.06 330.409C1138.15 329.451 1138.02 328.485 1137.67 327.586C1136.86 323.934 1134.83 322.717 1132.37 322.717C1126.71 322.717 1118.25 332.844 1118.25 342.566C1118.16 345.146 1118.87 347.692 1120.28 349.852C1121.65 351.941 1123.28 353.845 1125.14 355.516C1115.64 373.027 1103.9 389.23 1090.22 403.718H1089.89C1089.67 403.69 1089.45 403.712 1089.23 403.782C1089.02 403.852 1088.83 403.969 1088.67 404.124C1070.84 425.984 1046.13 447.05 1025.48 458.818C1018.19 462.876 1008.87 467.323 1001.18 467.728L997.524 468.134C991.858 468.134 988.204 465.311 987.798 458.007V455.995C987.798 443.433 997.118 427.642 1008.47 412.663H1015.76C1051.82 412.257 1085.44 383.093 1085.44 366.49C1085.44 360.015 1079.76 355.551 1067.21 355.551H1064.26C1032.68 356.839 992.193 390.15 976.908 423.884C958.851 442.745 932.022 468.099 918.82 468.946L918.414 468.54C918.008 468.134 918.008 467.728 918.008 466.917C918.008 455.995 957.722 411.851 966.229 401.724C975.955 389.974 980.35 379.864 980.809 372.559C980.809 365.679 978.373 359.609 971.083 357.986C969.652 357.486 968.151 357.212 966.635 357.174C962.537 357.451 958.538 358.555 954.88 360.421C933.011 370.548 903.834 399.695 886.043 416.703C937.088 347.047 1023.38 217.068 1089.82 164.014C1102.39 154.698 1133.95 136.472 1157.07 136.472C1168.01 136.472 1176.92 140.124 1181.37 150.252C1181.93 150.759 1182.65 151.048 1183.4 151.063L1183.81 150.657C1184.21 150.252 1184.62 149.846 1184.62 149.44V148.223C1178.14 135.255 1164.76 130.809 1149.78 130.809C1125.47 130.809 1095.89 142.559 1081.31 151.857C1016.15 193.161 929.798 324.763 872.875 416.209C856.743 434.188 826.807 465.135 810.286 466.105H809.386C806.562 466.105 805.344 464.094 805.344 460.812C805.344 442.992 843.01 381.84 881.1 331.221H903.781C904.193 331.039 904.555 330.762 904.837 330.412C905.12 330.062 905.314 329.65 905.405 329.209C905.373 328.79 905.191 328.395 904.894 328.098C904.596 327.8 904.201 327.619 903.781 327.586H883.519C911.459 289.917 934.564 261.176 938.235 257.118H931.758C922.032 264.811 895.697 292.405 866.133 327.586H839.392C838.58 327.586 838.174 327.992 838.174 329.209C838.174 330.021 838.58 331.221 839.392 331.221H862.885C840.716 356.998 819.57 385.422 805.203 410.017C787.941 429.724 765.807 448.109 746.956 458.783C739.649 462.841 730.329 467.287 722.633 467.693L718.997 468.099C713.314 468.099 709.678 465.276 709.272 457.972V455.96C709.272 443.398 718.591 427.607 729.923 412.628H737.23C773.273 412.222 806.897 383.057 806.897 366.455C806.897 359.98 801.231 355.516 788.682 355.516H785.84C746.144 357.139 692.292 409.381 692.292 449.467C692.225 451.774 692.361 454.083 692.698 456.366C694.728 468.91 704.436 472.968 715.379 472.968C717.552 473.036 719.727 472.9 721.874 472.563C731.458 470.76 740.574 467.026 748.668 461.588C764.553 453.155 782.381 439.128 797.931 423.337C790.871 437.187 786.758 449.203 786.758 457.936C786.758 464.835 789.194 470.093 795.671 472.051C797.393 472.553 799.174 472.826 800.967 472.863C804.143 472.852 807.294 472.303 810.286 471.239C827.337 465.805 846.858 448.85 862.656 432.565C855.013 444.915 848.041 456.366 841.881 466.37C841.424 466.853 841.08 467.431 840.873 468.062C840.665 468.693 840.599 469.362 840.68 470.022C840.668 470.397 840.733 470.77 840.87 471.119C841.008 471.468 841.215 471.785 841.48 472.051C841.744 472.317 842.06 472.526 842.408 472.666C842.757 472.805 843.13 472.872 843.505 472.863C844.542 472.845 845.553 472.529 846.417 471.954C847.28 471.378 847.961 470.567 848.376 469.616L874.693 433.359C884.825 423.637 943.972 364.108 958.569 364.108H958.975C960.987 364.514 961.799 365.326 961.799 366.949C961.799 371.007 955.727 378.699 954.103 380.323C940.336 397.313 918.449 424.043 909.977 444.298C907.963 448.332 906.861 452.759 906.747 457.266C906.79 459.179 907.062 461.081 907.559 462.929C908.021 465.547 909.292 467.953 911.195 469.81C912.898 471.263 915.031 472.118 917.266 472.245H918.82C931.881 471.469 955.639 450.314 973.784 431.877C971.826 437.558 970.777 443.512 970.677 449.52C970.61 451.827 970.746 454.136 971.083 456.419C973.113 468.963 982.839 473.021 993.764 473.021C995.937 473.089 998.112 472.953 1000.26 472.616C1009.82 470.811 1018.92 467.09 1027 461.677C1047.97 450.596 1072.01 429.918 1090.1 408.146C1090.38 407.989 1090.69 407.876 1091 407.811C1105.51 392.673 1117.92 375.646 1127.87 357.192C1135.16 361.656 1148.12 362.062 1152.99 365.696C1153.8 366.578 1154.24 367.743 1154.21 368.943C1154.21 371.377 1152.58 374.606 1149.74 378.664C1144.45 386.357 1138.8 394.455 1132.73 402.148C1101.13 445.074 1065.07 492.041 1065.07 545.907C1065.17 555.176 1066.26 564.409 1068.32 573.448C1051.31 581.952 1034.29 590.456 1016.87 600.178C1007.14 605.841 996.606 611.099 986.863 616.78C933.399 534.562 820.365 504.197 726.781 503.862H725.157C693.933 503.862 645.288 510.778 600.209 526.393C663.574 439.234 705.371 358.303 732.853 347.541L730.417 347.135C712.308 348.67 693.174 364.549 674.941 385.122L677.007 378.664C677.007 376.635 677.412 375.012 677.412 373.371C677.587 370.167 676.739 366.99 674.991 364.298C673.243 361.606 670.686 359.538 667.687 358.392C663.77 357.061 659.663 356.376 655.526 356.363C628.803 356.363 596.608 383.728 579.434 412.91C573.962 416.739 567.855 419.967 563.16 419.967C561.7 419.959 560.282 419.481 559.115 418.604C557.949 417.727 557.096 416.497 556.682 415.098C556.348 414.056 556.21 412.961 556.276 411.869C556.561 405.653 558.831 399.692 562.754 394.861V394.455C562.754 394.455 563.16 394.455 563.16 393.643L565.596 391.209C565.878 391.05 566.105 390.81 566.25 390.521C566.395 390.232 566.45 389.906 566.408 389.585C568.844 384.292 571.262 378.258 571.262 372.577C571.393 369.648 570.656 366.746 569.142 364.234C567.629 361.723 565.406 359.715 562.754 358.462C558.688 357.196 554.463 356.513 550.205 356.433C524.682 356.433 497.129 379.934 483.768 399.36C469.171 417.991 462.287 437.029 462.287 450.791C462.287 464.164 468.359 473.074 480.114 473.074C488.216 473.074 498.753 469.016 511.709 459.295C522.652 451.602 534.813 439.463 547.363 423.655C550.092 425.134 553.175 425.836 556.276 425.684C562.454 425.684 569.444 423.073 575.904 419.438C570.45 430.165 567.22 440.91 567.22 450.385C567.162 453.697 567.713 456.992 568.844 460.106C571.262 467.799 576.945 473.074 585.841 473.074C593.96 473.074 604.074 469.016 617.453 459.295L630.003 448.356C609.069 479.373 586.688 511.149 563.054 541.866C523.234 561.821 492.311 590.35 488.922 629.025C430.304 690.124 366.338 737.126 299.407 749.6L300.219 752.035C374.546 738.115 437.523 699.475 490.846 651.22C493.267 659.487 497.311 667.188 502.742 673.875C526.641 705.051 575.268 720.453 638.864 720.453C660.565 720.366 682.234 718.763 703.712 715.654C783.916 704.31 878.718 674.351 975.531 626.573C1007.07 681.55 1008.84 735.821 1008.84 738.591C1008.84 739.402 1009.65 740.62 1010.06 740.62C1010.61 740.575 1011.13 740.354 1011.55 739.988C1011.96 739.623 1012.25 739.133 1012.37 738.591C1013.65 729.335 1014.33 720.005 1014.4 710.661C1014.67 678.486 1005.82 646.892 988.875 619.533C998.6 614.24 1008.73 608.611 1018.46 603.336C1035.47 593.615 1052.49 585.11 1069.1 577.012C1088.51 651.944 1167.94 675.427 1237.22 676.239H1240.45C1292.31 676.239 1357.54 662.124 1392.37 620.344C1401.69 608.206 1406.96 595.643 1406.96 583.099C1406.9 580.67 1406.65 578.251 1406.19 575.865ZM1054.54 367.672C1062.23 362.82 1067.51 360.385 1071.55 360.385C1075.59 360.385 1077.64 363.226 1077.64 366.861C1077.64 379.829 1054.94 407.758 1015.65 408.976H1011.19C1025.38 391.191 1043.61 374.994 1054.54 367.708V367.672ZM776.221 367.672C783.916 362.82 789.194 360.385 793.236 360.385C797.278 360.385 799.307 363.226 799.307 366.861C799.307 379.829 776.626 407.758 737.336 408.976H732.871C747.062 391.191 765.26 374.994 776.221 367.708V367.672ZM540.444 412.187C540.458 413.931 540.823 415.655 541.517 417.255C542.212 418.856 543.221 420.3 544.486 421.502C534.346 434.492 522.651 446.189 509.661 456.331C505.602 459.559 492.24 467.252 483.732 467.252C479.673 467.252 476.425 465.629 475.631 461.183V458.413C475.631 436.958 514.109 390.785 527.471 376.617C536.79 367.302 547.328 363.261 555.429 363.261C562.719 363.261 567.996 366.896 567.996 373.847C567.996 377.905 566.373 382.669 562.701 388.844C553.805 392.003 540.444 402.13 540.444 412.187ZM614.982 456.295C610.534 459.118 597.967 467.217 589.054 467.217C587.07 467.363 585.108 466.724 583.592 465.436C582.076 464.149 581.127 462.317 580.952 460.336L580.546 457.901C580.546 436.852 619.042 389.868 633.215 376.512C642.041 367.196 652.631 362.75 660.768 362.75C668.058 362.75 673.317 366.79 673.317 373.671V376.106C672.506 378.946 671.288 385.827 670.088 391.085C659.144 405.2 649.419 419.844 639.693 434.417C631.997 441.81 623.49 449.503 614.982 456.401V456.295ZM558.165 548.041C537.337 574.824 515.574 600.742 492.999 624.632C497.659 591.603 523.905 566.461 558.165 548.041ZM703.306 711.843C681.562 714.962 659.63 716.588 637.663 716.713C575.692 716.713 528.23 702.139 505.196 671.757C499.904 664.795 496.068 656.838 493.917 648.362C533.189 612.352 567.185 571.225 596.626 531.174C642.729 514.607 693.545 507.356 725.175 507.356H726.799C825.236 507.761 919.632 533.274 973.519 623.167C877.5 671.422 782.698 700.993 703.306 711.914V711.843ZM1389.17 617.892C1355.95 658.472 1291.53 672.587 1240.48 672.587H1237.25C1174.86 671.775 1083.69 649.915 1078.05 572.972C1163.92 532.886 1234.41 517.889 1287.89 517.889C1300.64 517.748 1313.38 518.699 1325.97 520.729C1349.07 524.787 1368.1 532.074 1380.68 542.59C1393.64 552.311 1400.93 563.656 1403.36 576.606C1403.36 578.635 1403.77 580.664 1403.77 582.693C1403.75 594.073 1398.92 606.635 1389.17 617.962V617.892Z" fill="black" fill-opacity="0.1"/>
<path d="M598.497 312.889V314.548H612.264L640.505 314.654C640.505 309.061 641.952 299.957 642.058 295.087L640.399 294.258C639.781 296.322 636.975 308.761 635.21 309.996C633.145 311.037 625.273 311.231 616.571 311.443C615.825 311.464 615.098 311.212 614.526 310.734C613.954 310.257 613.576 309.586 613.464 308.849C612.423 302.339 611.805 286.283 611.805 270.439C611.805 264.846 611.911 234.305 614.082 230.583C614.806 229.33 616.783 229.136 618.018 229.03V227.372H598.602V229.03C599.838 229.136 601.815 229.33 602.539 230.583C605.027 234.729 604.304 264.652 604.304 270.863C604.304 286.742 604.71 307.614 602.539 311.337C601.709 312.59 599.732 312.784 598.497 312.889Z" fill="black" fill-opacity="0.1"/>
<path d="M666.646 249.214C653.39 249.214 644.494 262.676 644.494 282.242C644.494 301.809 653.496 316.418 666.646 316.418C679.795 316.418 688.709 301.703 688.709 282.242C688.709 262.464 679.601 249.214 666.646 249.214ZM666.646 313.824C655.561 313.824 653.92 296.64 653.92 282.242C653.92 268.128 655.561 251.913 666.646 251.913C677.73 251.913 679.389 267.792 679.389 282.242C679.389 296.692 677.624 313.824 666.646 313.824Z" fill="black" fill-opacity="0.1"/>
<path d="M709.431 314.548L709.537 314.654V314.548H712.643C716.385 301.298 726.764 267.951 731.388 257.806C731.856 256.508 732.74 255.401 733.901 254.654C735.062 253.908 736.437 253.565 737.813 253.678V251.914H720.727V253.572C723.516 253.572 725.493 254.807 725.493 257.701C725.493 264.229 719.068 282.243 714.09 297.469C714.09 297.875 713.896 298.298 713.79 298.704L701.558 258.689C700.641 255.583 702.812 253.925 705.918 253.625V251.967H684.473V253.625C688.726 253.731 690.686 255.283 692.751 260.682C696.281 269.998 702.6 291.735 709.325 314.213V314.513L709.431 314.548Z" fill="black" fill-opacity="0.1"/>
<path d="M772.531 272.609C772.838 272.566 773.134 272.462 773.4 272.303C773.665 272.144 773.897 271.933 774.079 271.683C774.262 271.433 774.393 271.149 774.463 270.847C774.534 270.545 774.543 270.233 774.491 269.927C773.343 256.36 764.853 249.32 754.192 249.32C741.449 249.32 733.012 262.464 733.012 281.625C733.012 301.615 740.778 316.718 754.034 316.718C765.524 316.718 773.096 305.655 774.226 295.193L772.055 294.769C771.013 302.127 764.995 311.972 756.628 311.972C746.673 311.972 742.119 297.257 742.119 281.625C742.068 278.614 742.203 275.603 742.525 272.609H772.531ZM754.881 252.319C761.941 252.319 765.136 259.571 765.86 265.993C765.933 266.478 765.898 266.973 765.757 267.443C765.617 267.913 765.375 268.346 765.048 268.712C764.721 269.077 764.317 269.366 763.865 269.558C763.414 269.75 762.926 269.84 762.435 269.822H742.896C743.832 263.099 746.32 252.319 754.916 252.319H754.881Z" fill="black" fill-opacity="0.1"/>
<path d="M782.469 322.205L783.192 324.058C786.159 322.942 788.747 321.006 790.653 318.476C792.56 315.945 793.707 312.924 793.959 309.766C794.277 305.214 791.576 302.215 788.999 301.897C788.576 301.897 788.382 301.792 788.17 301.792C786.74 301.895 785.399 302.524 784.406 303.556C783.412 304.589 782.835 305.952 782.786 307.385C782.363 310.701 783.916 313.913 787.958 314.018C788.47 316.63 786.299 319.735 782.469 322.205Z" fill="black" fill-opacity="0.1"/>
<path d="M1178.88 250.114C1177.23 246.316 1174.31 243.205 1170.63 241.302C1166.95 239.4 1162.72 238.824 1158.67 239.669C1154.61 240.515 1150.97 242.732 1148.35 245.947C1145.74 249.161 1144.31 253.178 1144.31 257.321C1144.31 261.464 1145.74 265.481 1148.35 268.696C1150.97 271.911 1154.61 274.127 1158.67 274.973C1162.72 275.819 1166.95 275.242 1170.63 273.34C1174.31 271.438 1177.23 268.326 1178.88 264.529C1180.54 268.331 1183.46 271.448 1187.14 273.353C1190.83 275.259 1195.06 275.837 1199.12 274.991C1203.18 274.145 1206.83 271.927 1209.45 268.708C1212.07 265.49 1213.49 261.469 1213.49 257.321C1213.49 253.173 1212.07 249.152 1209.45 245.934C1206.83 242.716 1203.18 240.497 1199.12 239.651C1195.06 238.805 1190.83 239.384 1187.14 241.289C1183.46 243.195 1180.54 246.311 1178.88 250.114ZM1162.4 272.698C1159.46 272.699 1156.57 271.858 1154.1 270.272C1151.62 268.687 1149.64 266.425 1148.41 263.754C1147.18 261.082 1146.74 258.114 1147.14 255.2C1147.55 252.287 1148.78 249.55 1150.69 247.314C1152.6 245.079 1155.12 243.438 1157.93 242.586C1160.75 241.735 1163.75 241.708 1166.58 242.51C1169.41 243.311 1171.96 244.907 1173.91 247.109C1175.86 249.31 1177.14 252.025 1177.6 254.931C1177.36 256.51 1177.36 258.115 1177.6 259.694C1177.02 263.315 1175.18 266.613 1172.39 268.996C1169.61 271.38 1166.06 272.692 1162.4 272.698ZM1195.4 241.927C1198.35 241.926 1201.23 242.767 1203.71 244.352C1206.19 245.938 1208.16 248.2 1209.39 250.871C1210.62 253.542 1211.06 256.511 1210.66 259.424C1210.25 262.338 1209.02 265.075 1207.11 267.311C1205.2 269.546 1202.69 271.187 1199.87 272.039C1197.05 272.89 1194.05 272.917 1191.22 272.115C1188.39 271.314 1185.85 269.718 1183.89 267.516C1181.94 265.315 1180.66 262.6 1180.21 259.694C1180.44 258.115 1180.44 256.51 1180.21 254.931C1180.78 251.31 1182.62 248.012 1185.41 245.629C1188.19 243.245 1191.74 241.933 1195.4 241.927Z" fill="black" fill-opacity="0.1"/>
<path d="M1163.02 250.996C1163.98 250.982 1164.93 251.175 1165.81 251.562C1166.69 251.948 1167.48 252.519 1168.12 253.237L1170.39 251.084C1169.06 249.63 1167.32 248.612 1165.4 248.164C1163.47 247.716 1161.46 247.859 1159.62 248.574C1157.78 249.289 1156.2 250.543 1155.09 252.172C1153.97 253.8 1153.38 255.727 1153.38 257.7C1153.38 259.673 1153.97 261.6 1155.09 263.229C1156.2 264.857 1157.78 266.111 1159.62 266.826C1161.46 267.542 1163.47 267.685 1165.4 267.237C1167.32 266.789 1169.06 265.771 1170.39 264.317L1168.12 262.217C1167.48 262.943 1166.7 263.521 1165.82 263.911C1164.94 264.301 1163.98 264.494 1163.02 264.475C1162.11 264.522 1161.2 264.383 1160.35 264.068C1159.49 263.753 1158.71 263.267 1158.05 262.641C1157.39 262.014 1156.87 261.26 1156.51 260.425C1156.15 259.589 1155.96 258.689 1155.96 257.78C1155.96 256.87 1156.15 255.97 1156.51 255.135C1156.87 254.299 1157.39 253.545 1158.05 252.919C1158.71 252.293 1159.49 251.807 1160.35 251.491C1161.2 251.176 1162.11 251.037 1163.02 251.084V250.996Z" fill="black" fill-opacity="0.1"/>
<path d="M1196.15 264.687C1193.88 264.687 1191.67 263.95 1189.86 262.588L1188.63 265.34C1190.82 266.902 1193.46 267.708 1196.15 267.634C1201.44 267.634 1203.86 265.022 1203.86 261.97C1203.86 254.913 1192.55 257.612 1192.55 253.554C1192.55 252.107 1193.75 250.978 1196.69 250.978C1198.56 250.998 1200.38 251.509 1201.99 252.46L1203.1 249.725C1201.19 248.559 1199 247.948 1196.76 247.961C1191.47 247.961 1189.07 250.572 1189.07 253.642C1189.07 260.7 1200.4 258.036 1200.4 262.146C1200.36 263.629 1199.11 264.687 1196.15 264.687Z" fill="black" fill-opacity="0.1"/>
</g>
<defs>
<clipPath id="clip0_87_3487">
<rect width="1407" height="752" fill="white"/>
</clipPath>
</defs>
</svg>
