<svg width="1359" height="727" viewBox="0 0 1359 727" fill="none" xmlns="http://www.w3.org/2000/svg">
<g clip-path="url(#clip0_99_3785)">
<path d="M327.71 301.959C352.358 301.959 376.215 293.733 391.466 278.102C402.413 266.759 406.671 251.889 406.671 236.638C406.671 221.387 402.368 206.121 395.723 195.964L393.762 197.135C398.065 203.384 399.631 211.61 399.631 220.596C399.631 238.204 392.195 258.533 381.643 269.496C365.602 285.142 341.349 293.733 317.493 293.733C282.688 293.733 249.069 275.35 245.527 234.296C245.204 230.651 245.072 226.992 245.131 223.333C245.131 157.951 304.979 114.601 366.772 109.127C373.432 108.732 380.077 108.352 386.326 108.352C480.598 108.352 573.35 168.975 683.982 168.975C689.852 168.975 696.147 168.975 701.97 168.58C753.987 165.052 819.704 134.55 841.599 78.6259C845.743 68.0289 847.867 56.7504 847.864 45.3722C847.864 28.5553 843.165 11.7384 832.218 0L831.001 1.91584C840.778 12.8636 845.081 27.7646 845.081 42.9698C845.148 54.3857 842.887 65.6954 838.436 76.2083C817.301 129.791 758.64 149.74 705.452 153.268C699.583 153.648 693.714 153.648 687.845 153.648C585.377 153.648 499.711 102.422 395.282 102.422C385.631 102.357 375.984 102.865 366.392 103.942C302.637 109.416 240.828 157.16 240.828 224.793C240.828 227.925 241.223 231.438 241.223 234.57C245.891 280.049 287.356 301.959 327.71 301.959Z" fill="white" fill-opacity="0.2"/>
<path d="M563.482 170.146C575.995 164.611 586.198 163.09 593.208 163.09C598.301 163.09 601.814 163.866 603.775 165.037C603.775 165.037 604.551 165.037 604.551 165.432L606.071 163.911C605.676 163.136 605.676 163.136 604.9 163.136C602.544 161.615 596.294 159.608 587.688 159.608C578.273 159.793 568.982 161.785 560.319 165.478C389.823 229.993 385.125 453.707 231.811 521.765C208.58 531.712 183.55 536.774 158.279 536.636C141.052 536.629 123.875 534.789 107.038 531.146C51.8888 518.633 13.1613 476.408 4.17505 420.848C3.28873 413.581 2.78121 406.273 2.65453 398.953C2.65453 352.014 25.3406 307.038 67.1852 281.615C91.7625 266.883 119.849 259.032 148.502 258.883C203.241 258.883 252.536 289.78 252.536 354.675C252.665 359.645 252.405 364.617 251.761 369.546C245.496 431.735 198.543 458.724 159.009 458.724C129.283 458.724 103.86 443.854 102.294 416.484H99.9523C101.473 445.024 130.454 460.671 163.708 460.671C208.684 460.671 262.267 432.511 268.927 369.151C269.307 364.072 269.703 359.374 269.703 354.675C269.703 286.617 214.554 255.72 155.101 255.72C123.755 255.785 92.985 264.153 65.9232 279.972C24.0786 305 0.541016 350.372 0.541016 397.706C0.612712 405.433 1.26839 413.144 2.50247 420.772C10.7133 477.487 49.8209 520.518 106.931 532.637C124.369 536.774 142.228 538.877 160.15 538.901C184.637 539.019 208.926 534.505 231.735 525.597C407.811 457.234 427.365 226.07 563.482 170.146Z" fill="white" fill-opacity="0.2"/>
<path d="M1358.23 556.189C1356.7 543.28 1348.84 531.146 1335.93 520.989C1322.63 511.212 1304.25 503.382 1281.56 499.474C1269.28 497.515 1256.85 496.6 1244.41 496.737C1192.72 496.737 1124.29 511.212 1041.03 549.955L1040.63 544.876C1040.63 493.179 1076.23 444.751 1106.73 403.681C1109.47 400.154 1111.83 396.246 1114.17 392.718C1123.55 379.824 1129.02 368.086 1129.02 362.612C1129.02 345.795 1102.43 348.532 1091.48 342.268C1092.07 341.265 1092.58 340.218 1093 339.135C1097.68 330.149 1099.25 323.489 1099.25 319.186C1099.34 318.257 1099.21 317.319 1098.87 316.449C1098.08 312.937 1096.13 311.766 1093.78 311.766C1088.3 311.766 1080.09 321.543 1080.09 330.925C1080 333.418 1080.69 335.877 1082.05 337.965C1083.38 339.978 1084.95 341.816 1086.74 343.439C1074.91 366.125 1058.11 384.66 1053.04 389.997H1052.71C1052.5 389.977 1052.28 390.002 1052.08 390.07C1051.88 390.138 1051.69 390.248 1051.54 390.392C1034.32 411.512 1010.48 431.857 990.519 443.2C983.479 447.107 974.492 451.41 967.057 451.806L963.53 452.186C958.056 452.186 954.543 449.449 954.148 442.409V440.463C954.148 428.299 963.149 413.093 974.097 398.603H981.137C1015.94 398.223 1048.4 370.048 1048.4 354.021C1048.4 347.757 1042.93 343.378 1030.81 343.378H1028.08C997.665 344.625 958.481 376.829 943.732 409.383C926.307 427.63 900.413 452.079 887.656 452.901L887.276 452.505C886.88 452.11 886.88 451.73 886.88 450.985C886.88 440.432 925.213 397.767 933.423 388.02C942.805 376.677 947.108 366.9 947.503 359.86C947.503 353.2 945.162 347.346 938.122 345.78C936.738 345.291 935.286 345.024 933.819 344.989C929.864 345.253 926.005 346.319 922.476 348.122C901.356 357.899 873.196 386.059 855.983 402.48C905.263 335.213 988.572 209.664 1052.72 158.422C1064.89 149.436 1095.3 131.828 1117.65 131.828C1128.2 131.828 1136.81 135.356 1141.11 145.133C1141.65 145.617 1142.35 145.892 1143.07 145.908L1143.45 145.513C1143.85 145.133 1144.24 144.738 1144.24 144.342V143.171C1137.98 130.658 1125.07 126.354 1110.61 126.354C1087.13 126.354 1058.59 137.698 1044.51 146.699C981.624 186.567 898.269 313.621 843.302 401.994C827.732 419.358 798.827 449.251 782.892 450.194H782.102C779.365 450.194 778.194 448.233 778.194 445.1C778.194 427.903 814.565 368.831 851.331 319.947H873.241C873.631 319.763 873.972 319.489 874.237 319.148C874.501 318.807 874.681 318.409 874.762 317.985C874.734 317.591 874.564 317.221 874.285 316.941C874.006 316.662 873.635 316.493 873.241 316.465H853.687C880.677 280.094 902.967 252.329 906.48 248.422H900.231C890.834 255.842 865.411 282.435 836.871 316.465H811.022C810.231 316.465 809.851 316.86 809.851 317.985C809.851 318.776 810.231 319.947 811.022 319.947H833.738C812.329 344.853 791.909 372.298 778.042 396.064C761.316 415.07 740.029 432.83 721.874 443.2C714.834 447.107 705.833 451.41 698.412 451.806L694.885 452.186C689.411 452.186 685.899 449.449 685.503 442.409V440.463C685.503 428.299 694.489 413.093 705.452 398.603H712.492C747.297 398.223 779.76 370.048 779.76 354.021C779.76 347.757 774.286 343.378 762.168 343.378H759.416C721.099 344.898 669.066 395.395 669.066 434.122C669.001 436.344 669.133 438.568 669.462 440.767C671.423 452.931 680.805 456.808 691.372 456.808C693.463 456.874 695.556 456.741 697.622 456.413C706.865 454.685 715.659 451.095 723.471 445.861C738.873 437.711 756.01 424.178 771.017 408.927C764.251 422.292 760.237 433.894 760.237 442.379C760.237 449.038 762.578 454.117 768.843 456.063C770.496 456.535 772.202 456.796 773.921 456.839C776.986 456.839 780.029 456.325 782.923 455.318C799.39 450.088 818.229 433.712 833.48 417.959C826.09 429.941 819.354 440.949 813.424 450.62C812.981 451.085 812.645 451.642 812.443 452.252C812.241 452.862 812.176 453.509 812.253 454.147C812.245 454.509 812.31 454.869 812.445 455.204C812.579 455.54 812.781 455.845 813.037 456.101C813.292 456.357 813.597 456.558 813.933 456.693C814.269 456.827 814.629 456.893 814.99 456.884C815.991 456.866 816.966 456.562 817.799 456.007C818.631 455.451 819.287 454.669 819.689 453.752L845.081 418.537C854.858 409.155 911.984 351.634 926.034 351.634H926.429C928.39 352.029 929.166 352.82 929.166 354.386C929.166 358.294 923.297 365.729 921.731 367.28C908.441 383.717 887.321 409.535 879.156 429.089C877.201 432.978 876.131 437.252 876.024 441.603C876.061 443.452 876.321 445.29 876.799 447.077C877.252 449.606 878.486 451.929 880.327 453.722C881.973 455.128 884.035 455.956 886.196 456.078H887.717C900.337 455.333 923.251 434.898 940.783 417.092C938.872 422.587 937.846 428.351 937.742 434.168C937.679 436.389 937.806 438.612 938.122 440.812C940.083 452.977 949.465 456.854 960.032 456.854C962.128 456.919 964.226 456.787 966.297 456.459C975.55 454.734 984.355 451.143 992.176 445.906C1012.43 435.263 1035.65 415.176 1053.12 394.209C1053.39 394.049 1053.68 393.941 1053.99 393.889C1067.97 379.255 1079.91 362.802 1089.49 344.974C1096.53 349.277 1109.04 349.673 1113.82 353.185C1114.6 354.036 1115.02 355.16 1114.99 356.317C1114.99 358.659 1113.47 361.791 1110.69 365.714C1105.61 373.134 1100.13 380.919 1094.26 388.385C1063.76 429.849 1028.88 475.222 1028.88 527.239C1028.98 536.2 1030.03 545.125 1032.03 553.863C1015.61 562.089 999.17 570.3 982.354 579.712C972.972 585.185 962.8 590.279 953.464 595.753C901.766 516.352 792.7 487.021 702.351 486.626H700.83C670.693 486.626 623.74 493.301 580.208 508.384C641.393 424.208 681.748 346.039 708.281 335.653L705.939 335.258C688.331 336.779 669.948 352.075 652.356 372.024L654.302 365.775C654.302 363.813 654.698 362.247 654.698 360.681C654.698 354.432 651.961 348.943 645.316 346.206C641.534 344.928 637.57 344.271 633.578 344.26C607.729 344.26 576.68 370.671 560.106 398.877C554.815 402.556 548.931 405.658 544.399 405.658C542.993 405.651 541.626 405.192 540.501 404.349C539.376 403.506 538.551 402.323 538.15 400.975C537.826 399.964 537.692 398.902 537.755 397.843C538.03 391.837 540.22 386.077 544.004 381.406V381.026C544.004 381.026 544.399 381.026 544.399 380.235L546.756 377.893C547.023 377.747 547.239 377.523 547.377 377.252C547.516 376.981 547.569 376.675 547.532 376.373C549.873 371.294 552.23 365.425 552.23 359.951C552.36 357.114 551.648 354.301 550.185 351.866C548.721 349.431 546.571 347.483 544.004 346.267C540.062 345.046 535.966 344.391 531.84 344.32C507.192 344.32 480.599 367.007 467.689 385.77C453.564 403.651 446.919 422.034 446.919 435.263C446.919 448.172 452.788 456.778 464.131 456.778C471.947 456.778 482.119 452.87 494.633 443.473C505.277 436.053 516.939 424.315 529.057 409.064C531.694 410.488 534.671 411.161 537.664 411.01C543.624 411.01 550.375 408.486 556.594 404.928C551.348 415.298 548.216 425.668 548.216 434.837C548.151 438.03 548.666 441.209 549.736 444.218C552.078 451.654 557.567 456.732 566.158 456.732C573.989 456.732 583.766 452.824 596.675 443.428L608.839 432.875C588.631 462.814 567.025 493.498 544.202 523.209C505.763 542.504 475.885 570.056 472.631 607.43C416.053 666.548 354.304 711.996 289.698 723.978L290.488 726.32C362.242 712.893 423.032 675.565 474.471 629.007C476.807 636.985 480.71 644.418 485.951 650.872C509.032 680.978 555.894 695.849 617.369 695.849C638.314 695.742 659.227 694.172 679.953 691.15C757.393 680.202 848.928 651.252 942.394 605.104C972.911 658.322 974.477 710.704 974.477 713.441C974.477 714.232 975.253 715.402 975.648 715.402C976.201 715.384 976.733 715.181 977.157 714.825C977.581 714.47 977.874 713.982 977.99 713.441C979.247 704.493 979.922 695.472 980.012 686.437C980.267 655.362 971.722 624.851 955.364 598.429C964.807 593.396 974.538 587.861 983.92 582.753C1000.34 573.371 1016.78 565.145 1032.8 557.33C1051.58 629.691 1128.25 652.377 1195.13 653.122H1198.18C1248.25 653.122 1311.21 639.437 1344.86 599.144C1353.85 587.421 1358.94 575.287 1358.94 563.168C1358.89 560.826 1358.66 558.492 1358.23 556.189ZM1018.72 355.147C1026.16 350.448 1031.25 348.107 1035.16 348.107C1039.07 348.107 1041.03 350.843 1041.03 354.371C1041.03 366.885 1019.12 393.904 981.183 395.045H976.88C990.564 377.833 1008.17 362.187 1018.72 355.147ZM750.034 355.147C757.469 350.448 762.548 348.107 766.456 348.107C770.363 348.107 772.325 350.843 772.325 354.371C772.325 366.885 750.429 393.904 712.492 395.045H708.189C721.874 377.833 739.482 362.187 750.034 355.147ZM522.413 398.177C522.424 399.861 522.776 401.525 523.448 403.07C524.12 404.614 525.097 406.007 526.32 407.163C516.537 419.717 505.24 431.014 492.687 440.797C488.764 443.929 475.87 451.365 467.644 451.365C463.736 451.365 460.604 449.844 459.828 445.496V442.759C459.828 422.034 496.99 377.376 509.899 363.692C518.885 354.69 529.057 350.783 536.873 350.783C543.913 350.783 549.037 354.31 549.037 360.955C549.037 364.863 547.516 369.561 543.943 375.43C535.322 378.608 522.413 388.385 522.413 398.177ZM594.379 440.752C590.076 443.488 577.942 451.319 569.336 451.319C567.422 451.458 565.53 450.84 564.068 449.597C562.606 448.354 561.691 446.586 561.52 444.675L561.125 442.318C561.125 421.988 598.286 376.616 611.971 363.707C620.577 354.706 630.749 350.403 638.565 350.403C645.605 350.403 650.729 354.325 650.729 360.97V363.312C649.938 366.049 648.768 372.693 647.597 377.787C636.953 391.472 627.648 405.552 618.266 419.632C610.8 426.717 602.59 434.153 594.379 440.797V440.752ZM539.534 529.322C519.417 555.17 498.389 580.259 476.584 603.325C481.07 571.394 506.432 547.096 539.534 529.367V529.322ZM679.619 687.668C658.627 690.624 637.458 692.148 616.259 692.23C556.427 692.23 510.659 678.15 488.368 648.819C483.261 642.099 479.558 634.42 477.481 626.239C515.388 591.45 548.231 551.734 576.649 513.022C621.155 497.026 670.222 490.016 700.739 490.016H702.259C797.307 490.412 888.446 515.059 940.463 601.881C847.803 648.484 756.283 677.025 679.619 687.668ZM1341.8 596.924C1309.72 635.971 1247.62 649.655 1198.25 649.655H1195.21C1134.97 648.865 1046.96 627.745 1041.49 553.437C1124.42 514.709 1192.46 500.219 1244.1 500.219C1256.41 500.088 1268.71 501.003 1280.86 502.956C1303.15 506.879 1321.54 513.919 1333.67 524.076C1346.18 533.473 1353.22 544.42 1355.56 556.934C1355.56 558.896 1355.96 560.842 1355.96 562.803C1355.88 573.782 1351.19 585.915 1341.8 596.863V596.924Z" fill="white" fill-opacity="0.2"/>
</g>
<defs>
<clipPath id="clip0_99_3785">
<rect width="1358.35" height="726.32" fill="white" transform="translate(0.647461)"/>
</clipPath>
</defs>
</svg>
